<?xml version="1.0" encoding="utf-8"?>
<!-- Generator: Adobe Illustrator 22.1.0, SVG Export Plug-In . SVG Version: 6.00 Build 0)  -->
<svg version="1.1" id="Layer_1" xmlns="http://www.w3.org/2000/svg" xmlns:xlink="http://www.w3.org/1999/xlink" x="0px" y="0px"
	 width="512px" height="512px" viewBox="0 0 512 512" enable-background="new 0 0 512 512" xml:space="preserve">
<g>
	<path fill="#FFFFFF" d="M503.981,246.199l-159.305-32.203c-9.68-20.363-26.309-36.988-46.672-46.668L265.801,8.02
		C264.86,3.355,260.758,0,256,0s-8.859,3.355-9.801,8.02l-32.203,159.309c-20.359,9.68-36.992,26.309-46.672,46.668L8.02,246.199
		C3.356,247.141,0,251.242,0,256s3.355,8.859,8.02,9.801l159.309,32.203c9.676,20.359,26.309,36.992,46.672,46.672L246.2,503.98
		c0.941,4.668,5.043,8.02,9.801,8.02s8.859-3.352,9.801-8.02l32.203-159.305c20.363-9.68,36.992-26.309,46.672-46.672
		l159.309-32.199c4.664-0.945,8.016-5.043,8.016-9.805C512,251.242,508.649,247.141,503.981,246.199z M335.641,279.426
		c-3.281,0.664-6.016,2.926-7.277,6.023c-7.898,19.375-23.539,35.016-42.91,42.91c-3.102,1.262-5.363,3.996-6.027,7.277L256,451.527
		l-23.422-115.887c-0.664-3.285-2.926-6.016-6.027-7.281c-19.375-7.895-35.016-23.535-42.91-42.906
		c-1.262-3.102-3.996-5.363-7.277-6.027L60.473,256l115.887-23.426c3.281-0.664,6.016-2.926,7.281-6.023
		c7.895-19.375,23.535-35.016,42.906-42.91c3.102-1.262,5.363-3.996,6.027-7.277L256,60.473l23.426,115.891
		c0.664,3.281,2.926,6.016,6.027,7.277c19.371,7.895,35.012,23.535,42.91,42.91c1.262,3.098,3.996,5.359,7.277,6.023L451.528,256
		L335.641,279.426z"/>
	<path fill="#FFFFFF" d="M97.594,305.473c-1.645-5.27-7.254-8.211-12.523-6.566c-5.273,1.645-8.215,7.25-6.57,12.523
		c4.699,15.066,11.34,29.516,19.734,42.949c1.895,3.035,5.156,4.703,8.488,4.703c1.812,0,3.645-0.492,5.289-1.52
		c4.688-2.93,6.109-9.098,3.184-13.781C107.708,331.797,101.786,318.906,97.594,305.473z"/>
	<path fill="#FFFFFF" d="M85.071,213.094c0.992,0.309,1.996,0.457,2.98,0.457c4.258,0,8.207-2.742,9.543-7.023
		c16.219-51.988,56.941-92.711,108.934-108.93c5.273-1.648,8.215-7.254,6.57-12.527c-1.645-5.27-7.254-8.215-12.523-6.566
		C142.309,96.68,96.676,142.312,78.504,200.57C76.856,205.844,79.797,211.449,85.071,213.094z"/>
	<path fill="#FFFFFF" d="M414.411,206.527c1.336,4.281,5.281,7.023,9.543,7.023c0.984,0,1.988-0.148,2.98-0.457
		c5.27-1.645,8.211-7.25,6.566-12.523c-4.699-15.066-11.34-29.516-19.734-42.949c-2.926-4.684-9.094-6.109-13.777-3.184
		c-4.684,2.93-6.109,9.098-3.184,13.781C404.293,180.203,410.219,193.094,414.411,206.527z"/>
	<path fill="#FFFFFF" d="M305.473,97.598c13.438,4.191,26.328,10.113,38.309,17.602c1.648,1.027,3.48,1.52,5.289,1.52
		c3.336,0,6.594-1.664,8.492-4.703c2.926-4.684,1.5-10.852-3.184-13.777c-13.43-8.395-27.879-15.035-42.949-19.734
		c-5.27-1.645-10.879,1.297-12.523,6.57C297.262,90.344,300.204,95.953,305.473,97.598z"/>
	<path fill="#FFFFFF" d="M206.528,414.402c-13.434-4.188-26.324-10.113-38.309-17.602c-4.684-2.926-10.852-1.5-13.777,3.184
		c-2.93,4.684-1.504,10.852,3.18,13.777c13.434,8.395,27.887,15.035,42.953,19.734c0.988,0.309,1.992,0.457,2.98,0.457
		c4.258,0,8.207-2.746,9.543-7.023C214.743,421.656,211.801,416.051,206.528,414.402z"/>
	<path fill="#FFFFFF" d="M426.934,298.906c-5.273-1.648-10.879,1.293-12.523,6.566c-16.219,51.988-56.945,92.711-108.938,108.93
		c-5.273,1.648-8.211,7.254-6.566,12.527c1.336,4.281,5.281,7.023,9.543,7.023c0.984,0,1.988-0.148,2.98-0.457
		c58.262-18.18,103.895-63.812,122.07-122.066C435.145,306.156,432.208,300.551,426.934,298.906z"/>
	<path fill="#FFFFFF" d="M131.618,370.383c-5.508,0-10,4.492-10,10s4.492,10,10,10s10-4.492,10-10S137.125,370.383,131.618,370.383z
		"/>
	<path fill="#FFFFFF" d="M380.383,141.617c5.508,0,10-4.492,10-10s-4.492-10-10-10s-10,4.492-10,10S374.875,141.617,380.383,141.617
		z"/>
</g>
</svg>
