<svg xmlns="http://www.w3.org/2000/svg" style="display: none;"><symbol id="vk" viewBox="0 0 112.196 112.196"><title>vk</title><g> <circle id="XMLID_11_" style="fill:#4D76A1;" cx="56.098" cy="56.098" r="56.098"/> </g><path style="fill-rule:evenodd;clip-rule:evenodd;fill:#FFFFFF;" d="M53.979,80.702h4.403c0,0,1.33-0.146,2.009-0.878 c0.625-0.672,0.605-1.934,0.605-1.934s-0.086-5.908,2.656-6.778c2.703-0.857,6.174,5.71,9.853,8.235 c2.782,1.911,4.896,1.492,4.896,1.492l9.837-0.137c0,0,5.146-0.317,2.706-4.363c-0.2-0.331-1.421-2.993-7.314-8.463 c-6.168-5.725-5.342-4.799,2.088-14.702c4.525-6.031,6.334-9.713,5.769-11.29c-0.539-1.502-3.867-1.105-3.867-1.105l-11.076,0.069 c0,0-0.821-0.112-1.43,0.252c-0.595,0.357-0.978,1.189-0.978,1.189s-1.753,4.667-4.091,8.636c-4.932,8.375-6.904,8.817-7.71,8.297 c-1.875-1.212-1.407-4.869-1.407-7.467c0-8.116,1.231-11.5-2.397-12.376c-1.204-0.291-2.09-0.483-5.169-0.514 c-3.952-0.041-7.297,0.012-9.191,0.94c-1.26,0.617-2.232,1.992-1.64,2.071c0.732,0.098,2.39,0.447,3.269,1.644 c1.135,1.544,1.095,5.012,1.095,5.012s0.652,9.554-1.523,10.741c-1.493,0.814-3.541-0.848-7.938-8.446 c-2.253-3.892-3.954-8.194-3.954-8.194s-0.328-0.804-0.913-1.234c-0.71-0.521-1.702-0.687-1.702-0.687l-10.525,0.069 c0,0-1.58,0.044-2.16,0.731c-0.516,0.611-0.041,1.875-0.041,1.875s8.24,19.278,17.57,28.993 C44.264,81.287,53.979,80.702,53.979,80.702L53.979,80.702z"/></symbol><symbol id="odnoklassniki-logo" viewBox="0 0 97.75 97.75"><title>odnoklassniki-logo</title><path d="M48.921,40.507c4.667-0.017,8.384-3.766,8.367-8.443c-0.017-4.679-3.742-8.402-8.411-8.406 c-4.708-0.005-8.468,3.787-8.432,8.508C40.48,36.826,44.239,40.524,48.921,40.507z" fill="#F7931D"/><path d="M48.875,0C21.882,0,0,21.883,0,48.875S21.882,97.75,48.875,97.75S97.75,75.867,97.75,48.875S75.868,0,48.875,0z M48.945,14.863c9.52,0.026,17.161,7.813,17.112,17.438c-0.048,9.403-7.814,17.024-17.318,16.992 c-9.407-0.032-17.122-7.831-17.066-17.253C31.726,22.515,39.445,14.837,48.945,14.863z M68.227,56.057 c-2.105,2.161-4.639,3.725-7.453,4.816c-2.66,1.031-5.575,1.55-8.461,1.896c0.437,0.474,0.642,0.707,0.914,0.979 c3.916,3.937,7.851,7.854,11.754,11.802c1.33,1.346,1.607,3.014,0.875,4.577c-0.799,1.71-2.592,2.834-4.351,2.713 c-1.114-0.077-1.983-0.63-2.754-1.407c-2.956-2.974-5.968-5.895-8.862-8.925c-0.845-0.882-1.249-0.714-1.994,0.052 c-2.973,3.062-5.995,6.075-9.034,9.072c-1.365,1.346-2.989,1.59-4.573,0.82c-1.683-0.814-2.753-2.533-2.671-4.262 c0.058-1.166,0.632-2.06,1.434-2.858c3.877-3.869,7.742-7.75,11.608-11.628c0.257-0.257,0.495-0.53,0.868-0.93 c-5.273-0.551-10.028-1.849-14.099-5.032c-0.506-0.396-1.027-0.778-1.487-1.222c-1.783-1.711-1.962-3.672-0.553-5.69 c1.207-1.728,3.231-2.19,5.336-1.197c0.408,0.191,0.796,0.433,1.168,0.689c7.586,5.213,18.008,5.356,25.624,0.233 c0.754-0.576,1.561-1.05,2.496-1.289c1.816-0.468,3.512,0.201,4.486,1.791C69.613,52.874,69.6,54.646,68.227,56.057z" fill="#F7931D"/></symbol><symbol id="instagram" viewBox="0 0 512 512"><title>instagram</title><circle style="fill:#EF72AD;" cx="256" cy="256" r="256"/><path style="fill:#EE539E;" d="M256,0c-11.317,0-22.461,0.744-33.391,2.167C348.216,18.53,445.217,125.933,445.217,256 s-97.002,237.47-222.609,253.833C233.539,511.256,244.683,512,256,512c141.385,0,256-114.616,256-256S397.385,0,256,0z"/><g> <path style="fill:#FFFFFF;" d="M350.84,91.826H161.16c-38.231,0-69.334,31.103-69.334,69.334v189.682 c0,38.231,31.103,69.334,69.334,69.334h189.682c38.231,0,69.334-31.103,69.334-69.334V161.16 C420.174,122.929,389.071,91.826,350.84,91.826z M403.478,350.84c0,29.025-23.613,52.638-52.638,52.638H161.16 c-29.025,0-52.638-23.613-52.638-52.638V161.16c0-29.025,23.613-52.638,52.638-52.638h189.682 c29.025,0,52.638,23.613,52.638,52.638v189.68H403.478z"/> <path style="fill:#FFFFFF;" d="M256,169.739c-47.565,0-86.261,38.696-86.261,86.261s38.696,86.261,86.261,86.261 s86.261-38.696,86.261-86.261S303.565,169.739,256,169.739z M256,325.565c-38.358,0-69.565-31.208-69.565-69.565 s31.208-69.565,69.565-69.565s69.565,31.208,69.565,69.565S294.358,325.565,256,325.565z"/> <circle style="fill:#FFFFFF;" cx="345.043" cy="155.826" r="22.261"/> </g></symbol></svg>