<svg xmlns="http://www.w3.org/2000/svg" width="1920" height="334" viewBox="0 0 1920 334"><g><g><path fill="#fff" d="M1150 71s4.938-7.928 13-6c8.063 1.928 12.577 14.173 18 15s22.24 4.634 28 0c5.76-4.635 17.436-11.266 27-9s11.308 16.52 17 15c5.693-1.52 12.638-17.96 27-17 14.363.96 26.254-4.762 28 1 1.745 5.762 10.544 13.386 15 9 4.457-4.386-8.497-31.659 13-33 21.497-1.341 22 17 22 17s8.14 19.691 17 17c8.859-2.691 5.038-28.274 26-28 20.963.274 20.083 13.728 26 15 5.918 1.272 5.04-22.606 25-26 19.96-3.394 24.692 20.941 31 20 6.308-.941 20.83-22.311 34-27 13.171-4.69 30.704.656 38 2 7.297 1.344 22.526 6.35 29 1s11.175-7.653 16-7c4.826.653 20.953 19.244 25 17 4.046-2.244 12.741-19.952 25-14 12.259 5.952 19.225 19.74 32 18 12.775-1.74 14.243-7.616 18-8 3.758-.385 19.362 17.953 32 12 12.638-5.952 34.272-4.293 38-16 3.728-11.706 19.698-13.827 40-10 20.302 3.826 26.395 11.416 32 12 5.605.584 9.134-5.96 17-5 7.867.96 19.176 19.652 27 19 7.824-.652 55.659-3.627 60-15 4.341-11.373 0 294 0 294H-39L-2 42s18.284-19.007 29-17c10.716 2.007 12.72 9.661 16 10 3.28.34 12-5 12-5l6 2s7.268-17.126 14-17c6.73.126 11 13 11 13s7.966-2.905 14 0c6.035 2.905 6.518 15.188 12 14 5.481-1.189 15.324-9.046 16-18 .677-8.954 1.517-16.878 8-17 6.484-.122 9.325 4.759 15 9 5.675 4.241 12.302 19.218 21 18s3.94-20.214 12-18c8.06 2.214 10.664 16.585 16 17 5.337.415 16.534 1.917 19-1 2.465-2.917 20-1 20-1s4.032 6.116 6 6c1.968-.116 17.734-3.5 24-2 6.267 1.5 11.673 6.105 14 6 2.327-.104 17.296 13.849 22 10 4.704-3.848 10.995-9.107 13-17 2.005-7.894 10.579-23.403 28-20 17.421 3.403 29.524 8.277 33 9 3.476.724 18 6 18 6s.397-8.815 6-10c5.602-1.184 8.606 7.726 12 7 3.393-.726 7.368-9.733 12-10 4.632-.267 13 5 13 5s10.98-4.907 25 5 38.642 22.185 43 17c4.358-5.184 6-9 6-9l-11-8 2-5-4-7s6.494-6.551 11-5c4.505 1.552 1.731-8.251 9-9 7.269-.75 4.97 6.67 9 8 4.03 1.329 3.976-5.109 7-5 3.025.109 5 11 5 11v10l2 13 4 5h11l4-2h11s2.194-5.212 2-12c-.194-6.788-7.203-6.587-4-9 3.202-2.413 16.03-1.61 23 1 7.83-2.568 13.033-5.52 17-3 3.966 2.52 15.21 9.474 17 14 1.79 4.526 5.917 8.5 10 8 4.083-.499 8-2 8-2s-12.74-21.905-5-23c7.74-1.095 10.937 6.581 11 10 .063 3.42 3 12 3 12s4.14 1.349 7 0c2.86-1.349-.335-7.505 2-9s8-2 8-2 1.901-6.673 5-5c3.098 1.673 5.19 5.915 9 10 3.81 4.085 7 12 7 12l10 9s5.714 3.292 9 7c3.287 3.708 13.003 13.231 10 22s-4.798 13.243-10 15c-5.202 1.757-10.421 5.544-13 6-2.58.456-5.122 1.655-7 1-1.878-.655-7.218-2.501-7 2 .219 4.5 12.878 2.622 13 6 .122 3.378.456 11.774 5 11 4.544-.775 8-7 8-7s5.74-5.317 10-5c4.261.317 5.797 6.448 9 6 3.202-.448 8-3 8-3s6.696-1.7 9-4c2.304-2.3 12.444-15.048 18-12 5.556 3.048 6.415 7.403 7 10 .585 2.597 6.885 10.124 5 14-1.885 3.876-7.456 8.103-7 11 .456 2.897-2.792 10.067 3 12 5.792 1.933 11.126 1.792 16-2 4.874-3.792 5.895-21.013 13-21 7.105.013 10.61 4.032 14 2 3.39-2.032 5.798-10.708 10-13s12.093-2.155 14-8c10.913.486 14.798 6.775 20 7 5.202.225 8.175-12.328 13-9 4.824 3.328 3.316 13.418 7 16 3.685 2.582 11.05 1.312 15 2 3.95.688 10.597 3.64 18 2 7.402-1.64 15.36-11.752 24-11 8.64.752 10 8 10 8s6.576 5.3 12 4c5.424-1.3 5.18-20.5 19-22 13.819-1.5 42.902-21.1 55-15 12.098 6.1 28.275 37.807 36 32 7.725-5.806 17.052-35.262 28-35 10.948.262 15.77 2.979 21 2 5.23-.978 16-13 16-13l3 8 6 2"/></g></g></svg>