<?xml version="1.0" encoding="utf-8"?>
<!-- Generator: Adobe Illustrator 22.1.0, SVG Export Plug-In . SVG Version: 6.00 Build 0)  -->
<svg version="1.1" id="Layer_1" xmlns="http://www.w3.org/2000/svg" xmlns:xlink="http://www.w3.org/1999/xlink" x="0px" y="0px">
	 <symbol id="logo" viewBox="0 0 413.933 402.388">
<g>
	<g>
		<path fill="var(--color-mir)" d="M134.873,227.716c1.746,1.746,2.618,3.899,2.618,6.458v118.152c0,2.561-0.903,4.712-2.705,6.457
			c-1.805,1.745-3.927,2.618-6.37,2.618c-2.561,0-4.712-0.873-6.458-2.618s-2.618-3.896-2.618-6.457v-86.738l-42.235,86.04
			c-1.979,3.027-4.597,4.538-7.854,4.538c-3.839,0-6.632-1.803-8.377-5.41l-41.711-83.597v85.167c0,2.561-0.873,4.712-2.618,6.457
			s-3.899,2.618-6.458,2.618c-2.561,0-4.712-0.873-6.457-2.618c-1.746-1.745-2.618-3.896-2.618-6.457V234.174
			c0-2.558,0.873-4.712,2.618-6.458c1.745-1.745,3.896-2.618,6.457-2.618c3.491,0,6.166,1.631,8.028,4.887l51.833,103.842
			l50.437-103.842c1.86-3.256,4.538-4.887,8.028-4.887C130.974,225.099,133.128,225.971,134.873,227.716z"/>
		<path fill="var(--color-mir)" d="M277.457,226.059c1.279-0.638,2.559-0.96,3.84-0.96c2.676,0,4.857,0.845,6.545,2.531
			c1.686,1.688,2.531,3.869,2.531,6.544v118.152c0,2.561-0.846,4.712-2.531,6.457c-1.688,1.745-3.869,2.618-6.545,2.618
			c-2.561,0-4.711-0.873-6.457-2.618c-1.744-1.745-2.617-3.896-2.617-6.457v-98.78L188.8,358.26
			c-0.815,0.933-1.862,1.688-3.142,2.269c-1.281,0.584-2.561,0.873-3.839,0.873c-2.678,0-4.917-0.873-6.719-2.618
			c-1.805-1.745-2.705-3.896-2.705-6.457V234.174c0-2.558,0.9-4.712,2.705-6.458c1.803-1.745,4.042-2.618,6.719-2.618
			c2.558,0,4.652,0.845,6.283,2.531c1.628,1.688,2.443,3.869,2.443,6.544v98.955l83.771-104.714
			C275.129,227.485,276.176,226.699,277.457,226.059z"/>
		<path fill="var(--color-mir)" d="M340.896,358.783c-1.688,1.745-3.87,2.618-6.545,2.618c-2.561,0-4.712-0.873-6.457-2.618
			s-2.618-3.896-2.618-6.457V234.174c0-2.675,0.873-4.856,2.618-6.544c1.745-1.686,3.896-2.531,6.457-2.531h34.904
			c8.609,0,16.318,1.92,23.125,5.759c6.806,3.839,12.099,9.192,15.881,16.056c3.78,6.866,5.672,14.66,5.672,23.386
			c0,8.495-1.892,16.056-5.672,22.688c-3.782,6.632-9.075,11.811-15.881,15.532c-6.807,3.726-14.516,5.585-23.125,5.585h-25.829
			v38.221C343.426,354.887,342.58,357.038,340.896,358.783z M388.802,289.759c5.118-5.061,7.679-11.546,7.679-19.459
			c0-8.26-2.561-15.066-7.679-20.419c-5.121-5.35-11.636-8.028-19.547-8.028h-25.829v55.499h25.829
			C377.166,297.352,383.681,294.821,388.802,289.759z"/>
	</g>
	<g>
		<path fill="var(--color-mir)" d="M15.294,383.13c0.223,0.224,0.334,0.508,0.334,0.854s-0.111,0.632-0.334,0.854
			c-0.223,0.224-0.508,0.335-0.854,0.335H9.115v15.678c0,0.363-0.124,0.669-0.372,0.917c-0.248,0.247-0.554,0.371-0.917,0.371
			c-0.363,0-0.669-0.124-0.917-0.371c-0.248-0.248-0.372-0.554-0.372-0.917v-15.678h-5.35c-0.347,0-0.632-0.111-0.854-0.335
			C0.111,384.616,0,384.331,0,383.984s0.111-0.631,0.334-0.854c0.223-0.223,0.508-0.334,0.854-0.334H14.44
			C14.787,382.796,15.071,382.907,15.294,383.13z"/>
		<path fill="var(--color-mir)" d="M32.57,383.86c0,0.215-0.058,0.438-0.173,0.669l-6.811,13.994c-0.595,1.223-1.3,2.167-2.118,2.836
			s-1.697,1.003-2.638,1.003c-0.759,0-1.486-0.223-2.179-0.669c-0.198-0.115-0.351-0.268-0.458-0.458
			c-0.107-0.189-0.161-0.384-0.161-0.582s0.066-0.404,0.198-0.619c0.214-0.363,0.545-0.545,0.991-0.545
			c0.281,0,0.553,0.074,0.817,0.223c0.264,0.149,0.528,0.224,0.792,0.224c0.446,0,0.904-0.211,1.375-0.632
			c0.47-0.421,0.887-1.012,1.25-1.771l0.248-0.521l-7.529-12.359c-0.132-0.214-0.198-0.438-0.198-0.669
			c0-0.396,0.223-0.718,0.669-0.966c0.214-0.132,0.446-0.198,0.693-0.198c0.396,0,0.718,0.215,0.966,0.645l6.489,11.318l5.474-11.22
			c0.248-0.512,0.578-0.768,0.991-0.768c0.198,0,0.404,0.05,0.619,0.148C32.338,383.159,32.57,383.465,32.57,383.86z"/>
		<path fill="var(--color-mir)" d="M38.081,401.768c-0.239,0.247-0.549,0.371-0.929,0.371c-0.363,0-0.668-0.124-0.917-0.371
			c-0.248-0.248-0.371-0.554-0.371-0.917v-16.768c0-0.38,0.124-0.689,0.371-0.929c0.248-0.239,0.553-0.359,0.917-0.359h4.954
			c1.222,0,2.316,0.272,3.282,0.817c0.966,0.545,1.717,1.305,2.254,2.278c0.537,0.975,0.805,2.081,0.805,3.319
			c0,1.205-0.269,2.278-0.805,3.22s-1.288,1.676-2.254,2.204c-0.966,0.528-2.06,0.793-3.282,0.793H38.44v5.424
			C38.44,401.215,38.32,401.52,38.081,401.768z M44.879,391.973c0.727-0.719,1.09-1.639,1.09-2.762c0-1.173-0.363-2.139-1.09-2.898
			c-0.727-0.759-1.651-1.139-2.774-1.139H38.44v7.876h3.666C43.228,393.05,44.153,392.69,44.879,391.973z"/>
		<path fill="var(--color-mir)" d="M66.205,382.932c0.182-0.09,0.363-0.136,0.545-0.136c0.379,0,0.689,0.12,0.929,0.359
			s0.359,0.549,0.359,0.929v16.768c0,0.363-0.12,0.669-0.359,0.917c-0.239,0.247-0.549,0.371-0.929,0.371
			c-0.363,0-0.669-0.124-0.917-0.371c-0.248-0.248-0.372-0.554-0.372-0.917v-14.019l-11.839,14.86
			c-0.116,0.133-0.265,0.24-0.446,0.322c-0.182,0.083-0.364,0.124-0.545,0.124c-0.38,0-0.698-0.124-0.954-0.371
			c-0.256-0.248-0.384-0.554-0.384-0.917v-16.768c0-0.363,0.127-0.669,0.384-0.917c0.256-0.247,0.573-0.371,0.954-0.371
			c0.363,0,0.66,0.12,0.892,0.359c0.231,0.239,0.347,0.549,0.347,0.929v14.043l11.889-14.86
			C65.874,383.135,66.022,383.022,66.205,382.932z"/>
		<path fill="var(--color-mir)" d="M84.917,383.043c0.916,0.331,1.845,0.876,2.786,1.635c0.198,0.149,0.33,0.302,0.396,0.459
			c0.066,0.157,0.099,0.343,0.099,0.557c0,0.331-0.12,0.604-0.359,0.817c-0.239,0.215-0.516,0.322-0.83,0.322
			c-0.314,0-0.603-0.107-0.867-0.322c-0.677-0.577-1.337-0.994-1.981-1.251c-0.644-0.256-1.478-0.384-2.501-0.384
			c-1.288,0-2.473,0.339-3.554,1.016c-1.082,0.678-1.94,1.598-2.576,2.762c-0.636,1.164-0.954,2.432-0.954,3.802
			c0,1.388,0.318,2.659,0.954,3.814c0.635,1.156,1.494,2.072,2.576,2.749c1.082,0.678,2.267,1.016,3.554,1.016
			c1.585,0,3.104-0.545,4.558-1.635c0.28-0.198,0.553-0.297,0.817-0.297c0.313,0,0.573,0.111,0.78,0.334
			c0.207,0.224,0.31,0.517,0.31,0.88c0,0.347-0.133,0.652-0.396,0.916c-1.783,1.437-3.806,2.155-6.068,2.155
			c-1.767,0-3.381-0.438-4.842-1.313c-1.461-0.875-2.613-2.071-3.456-3.591c-0.842-1.52-1.263-3.195-1.263-5.028
			c0-1.816,0.421-3.479,1.263-4.99c0.842-1.511,1.994-2.708,3.456-3.592c1.461-0.883,3.075-1.325,4.842-1.325
			C82.914,382.548,84,382.713,84.917,383.043z"/>
		<path fill="var(--color-mir)" d="M105.424,383.13c0.223,0.224,0.334,0.508,0.334,0.854s-0.111,0.632-0.334,0.854
			c-0.223,0.224-0.508,0.335-0.854,0.335h-5.325v15.678c0,0.363-0.124,0.669-0.372,0.917c-0.248,0.247-0.554,0.371-0.917,0.371
			c-0.363,0-0.669-0.124-0.917-0.371c-0.248-0.248-0.372-0.554-0.372-0.917v-15.678h-5.35c-0.347,0-0.632-0.111-0.854-0.335
			c-0.223-0.223-0.334-0.508-0.334-0.854s0.111-0.631,0.334-0.854c0.223-0.223,0.508-0.334,0.854-0.334h13.251
			C104.917,382.796,105.201,382.907,105.424,383.13z"/>
		<path fill="var(--color-mir)" d="M123.517,382.932c0.182-0.09,0.363-0.136,0.545-0.136c0.379,0,0.689,0.12,0.929,0.359
			s0.359,0.549,0.359,0.929v16.768c0,0.363-0.12,0.669-0.359,0.917c-0.239,0.247-0.549,0.371-0.929,0.371
			c-0.363,0-0.669-0.124-0.917-0.371c-0.248-0.248-0.372-0.554-0.372-0.917v-14.019l-11.839,14.86
			c-0.116,0.133-0.265,0.24-0.446,0.322c-0.182,0.083-0.364,0.124-0.545,0.124c-0.38,0-0.698-0.124-0.954-0.371
			c-0.256-0.248-0.384-0.554-0.384-0.917v-16.768c0-0.363,0.127-0.669,0.384-0.917c0.256-0.247,0.573-0.371,0.954-0.371
			c0.363,0,0.66,0.12,0.892,0.359c0.231,0.239,0.347,0.549,0.347,0.929v14.043l11.889-14.86
			C123.187,383.135,123.335,383.022,123.517,382.932z"/>
		<path fill="var(--color-mir)" d="M144.31,383.155c0.239,0.239,0.359,0.549,0.359,0.929v16.768c0,0.363-0.12,0.669-0.359,0.917
			c-0.24,0.247-0.549,0.371-0.929,0.371c-0.363,0-0.668-0.124-0.917-0.371c-0.248-0.248-0.371-0.554-0.371-0.917v-7.034
			c-0.578,0.628-1.325,1.119-2.242,1.474c-0.917,0.355-1.944,0.533-3.083,0.533c-2.362,0-4.173-0.731-5.437-2.192
			s-1.895-3.479-1.895-6.056v-3.492c0-0.38,0.124-0.689,0.372-0.929s0.553-0.359,0.917-0.359c0.379,0,0.689,0.12,0.929,0.359
			c0.239,0.239,0.359,0.549,0.359,0.929v3.492c0,1.981,0.375,3.479,1.127,4.495c0.751,1.016,2.01,1.523,3.777,1.523
			c1.007,0,1.903-0.124,2.688-0.372c0.784-0.247,1.395-0.59,1.833-1.027s0.657-0.945,0.657-1.523v-6.588
			c0-0.38,0.124-0.689,0.371-0.929c0.248-0.239,0.553-0.359,0.917-0.359C143.761,382.796,144.07,382.916,144.31,383.155z"/>
		<path fill="var(--color-mir)" d="M163.022,400.084c0.231,0.215,0.347,0.495,0.347,0.842c0,0.363-0.116,0.656-0.347,0.88
			c-0.231,0.223-0.537,0.334-0.917,0.334h-11.195c-0.363,0-0.668-0.124-0.917-0.371c-0.248-0.248-0.371-0.554-0.371-0.917v-16.768
			c0-0.38,0.124-0.689,0.371-0.929c0.248-0.239,0.553-0.359,0.917-0.359h11.195c0.379,0,0.685,0.111,0.917,0.334
			c0.231,0.224,0.347,0.517,0.347,0.88c0,0.347-0.116,0.627-0.347,0.842c-0.231,0.215-0.537,0.322-0.917,0.322h-9.907v6.019h7.108
			c0.363,0,0.665,0.111,0.904,0.334s0.359,0.508,0.359,0.854s-0.12,0.632-0.359,0.854s-0.541,0.335-0.904,0.335h-7.108v6.191h9.907
			C162.485,399.762,162.791,399.869,163.022,400.084z"/>
		<path fill="var(--color-mir)" d="M178.886,383.043c0.916,0.331,1.845,0.876,2.786,1.635c0.198,0.149,0.33,0.302,0.396,0.459
			c0.066,0.157,0.099,0.343,0.099,0.557c0,0.331-0.12,0.604-0.359,0.817c-0.239,0.215-0.516,0.322-0.83,0.322
			c-0.314,0-0.603-0.107-0.867-0.322c-0.677-0.577-1.337-0.994-1.981-1.251c-0.644-0.256-1.478-0.384-2.501-0.384
			c-1.288,0-2.473,0.339-3.554,1.016c-1.082,0.678-1.94,1.598-2.576,2.762c-0.636,1.164-0.954,2.432-0.954,3.802
			c0,1.388,0.318,2.659,0.954,3.814c0.635,1.156,1.494,2.072,2.576,2.749c1.082,0.678,2.267,1.016,3.554,1.016
			c1.585,0,3.104-0.545,4.558-1.635c0.28-0.198,0.553-0.297,0.817-0.297c0.313,0,0.573,0.111,0.78,0.334
			c0.207,0.224,0.31,0.517,0.31,0.88c0,0.347-0.133,0.652-0.396,0.916c-1.783,1.437-3.806,2.155-6.068,2.155
			c-1.767,0-3.381-0.438-4.842-1.313c-1.461-0.875-2.613-2.071-3.456-3.591c-0.842-1.52-1.263-3.195-1.263-5.028
			c0-1.816,0.421-3.479,1.263-4.99c0.842-1.511,1.994-2.708,3.456-3.592c1.461-0.883,3.075-1.325,4.842-1.325
			C176.884,382.548,177.97,382.713,178.886,383.043z"/>
		<path fill="var(--color-mir)" d="M200.793,401c0,0.298-0.124,0.57-0.372,0.817c-0.231,0.231-0.528,0.347-0.892,0.347
			c-0.198,0-0.384-0.037-0.557-0.111c-0.174-0.074-0.318-0.177-0.434-0.31l-7.108-8.272h-2.65v7.381c0,0.363-0.12,0.669-0.359,0.917
			c-0.239,0.247-0.549,0.371-0.929,0.371c-0.363,0-0.668-0.124-0.917-0.371c-0.248-0.248-0.371-0.554-0.371-0.917v-16.768
			c0-0.38,0.124-0.689,0.371-0.929c0.248-0.239,0.553-0.359,0.917-0.359c0.38,0,0.689,0.12,0.929,0.359s0.359,0.549,0.359,0.929
			v7.108h2.551l6.663-7.976c0.247-0.297,0.553-0.445,0.916-0.445s0.66,0.132,0.892,0.396c0.215,0.231,0.322,0.496,0.322,0.793
			s-0.116,0.586-0.347,0.867l-6.267,7.281l6.91,8.025C200.669,400.397,200.793,400.686,200.793,401z"/>
		<path fill="var(--color-mir)" d="M217.351,383.811c1.494,0.842,2.658,2.015,3.492,3.517c0.834,1.503,1.251,3.212,1.251,5.127
			c0,1.916-0.417,3.629-1.251,5.14s-1.993,2.688-3.479,3.529s-3.188,1.264-5.103,1.264c-1.916,0-3.62-0.422-5.115-1.264
			c-1.495-0.842-2.654-2.019-3.48-3.529c-0.825-1.511-1.238-3.224-1.238-5.14c0-1.915,0.413-3.624,1.238-5.127
			c0.826-1.502,1.985-2.675,3.48-3.517c1.495-0.843,3.199-1.264,5.115-1.264C214.159,382.548,215.856,382.969,217.351,383.811z
			 M208.459,385.867c-1.114,0.66-1.986,1.568-2.614,2.725c-0.628,1.155-0.941,2.443-0.941,3.863c0,1.421,0.313,2.708,0.941,3.864
			s1.503,2.068,2.626,2.736c1.122,0.669,2.386,1.004,3.789,1.004s2.667-0.335,3.79-1.004c1.122-0.668,1.997-1.58,2.625-2.736
			c0.627-1.156,0.941-2.443,0.941-3.864c0-1.42-0.314-2.708-0.941-3.863c-0.628-1.156-1.498-2.064-2.613-2.725
			c-1.114-0.66-2.382-0.991-3.802-0.991S209.573,385.207,208.459,385.867z"/>
		<path fill="var(--color-mir)" d="M239.53,400.084c0.231,0.215,0.347,0.495,0.347,0.842c0,0.363-0.115,0.656-0.347,0.88
			c-0.231,0.223-0.536,0.334-0.916,0.334h-11.195c-0.363,0-0.669-0.124-0.916-0.371c-0.248-0.248-0.372-0.554-0.372-0.917v-16.768
			c0-0.38,0.124-0.689,0.372-0.929c0.247-0.239,0.553-0.359,0.916-0.359h11.195c0.38,0,0.685,0.111,0.916,0.334
			c0.231,0.224,0.347,0.517,0.347,0.88c0,0.347-0.115,0.627-0.347,0.842s-0.536,0.322-0.916,0.322h-9.907v6.019h7.108
			c0.363,0,0.664,0.111,0.904,0.334c0.239,0.223,0.358,0.508,0.358,0.854s-0.119,0.632-0.358,0.854
			c-0.24,0.223-0.541,0.335-0.904,0.335h-7.108v6.191h9.907C238.994,399.762,239.299,399.869,239.53,400.084z"/>
		<path fill="var(--color-mir)" d="M265.314,400.877c0,0.347-0.124,0.644-0.372,0.892c-0.247,0.247-0.553,0.371-0.916,0.371
			c-0.248,0-0.483-0.07-0.706-0.211c-0.223-0.14-0.384-0.334-0.482-0.582l-1.388-3.467h-8.892l-1.412,3.467
			c-0.115,0.248-0.28,0.442-0.495,0.582c-0.215,0.141-0.445,0.211-0.693,0.211c-0.363,0-0.665-0.128-0.904-0.384
			s-0.358-0.558-0.358-0.904c0-0.165,0.041-0.354,0.123-0.569l6.96-16.619c0.248-0.578,0.652-0.867,1.214-0.867
			c0.595,0,0.999,0.289,1.214,0.867l6.984,16.669C265.272,400.546,265.314,400.727,265.314,400.877z M260.584,395.749l-3.542-8.817
			l-3.616,8.817H260.584z"/>
		<path fill="var(--color-mir)" d="M270.342,401.768c-0.248,0.247-0.554,0.371-0.917,0.371s-0.669-0.124-0.916-0.371
			c-0.248-0.248-0.372-0.554-0.372-0.917v-16.768c0-0.38,0.124-0.689,0.372-0.929c0.247-0.239,0.553-0.359,0.916-0.359h10.229
			c0.38,0,0.685,0.111,0.916,0.334c0.231,0.224,0.347,0.517,0.347,0.88c0,0.347-0.115,0.627-0.347,0.842s-0.536,0.322-0.916,0.322
			h-8.941v15.678C270.713,401.215,270.589,401.52,270.342,401.768z"/>
		<path fill="var(--color-mir)" d="M297.041,400.084c0.231,0.215,0.347,0.495,0.347,0.842c0,0.363-0.115,0.656-0.347,0.88
			c-0.231,0.223-0.536,0.334-0.916,0.334H284.93c-0.363,0-0.669-0.124-0.916-0.371c-0.248-0.248-0.372-0.554-0.372-0.917v-16.768
			c0-0.38,0.124-0.689,0.372-0.929c0.247-0.239,0.553-0.359,0.916-0.359h11.195c0.38,0,0.685,0.111,0.916,0.334
			c0.231,0.224,0.347,0.517,0.347,0.88c0,0.347-0.115,0.627-0.347,0.842s-0.536,0.322-0.916,0.322h-9.907v6.019h7.108
			c0.363,0,0.664,0.111,0.904,0.334c0.239,0.223,0.358,0.508,0.358,0.854s-0.119,0.632-0.358,0.854
			c-0.24,0.223-0.541,0.335-0.904,0.335h-7.108v6.191h9.907C296.505,399.762,296.81,399.869,297.041,400.084z"/>
		<path fill="var(--color-mir)" d="M315.42,383.155c0.247-0.239,0.553-0.359,0.916-0.359s0.664,0.12,0.904,0.359
			c0.239,0.239,0.359,0.549,0.359,0.929v16.768c0,0.38-0.12,0.689-0.359,0.929c-0.24,0.24-0.541,0.359-0.904,0.359
			s-0.669-0.124-0.916-0.371c-0.248-0.248-0.372-0.554-0.372-0.917v-7.381h-11.492v7.381c0,0.363-0.12,0.669-0.359,0.917
			c-0.239,0.247-0.549,0.371-0.929,0.371c-0.363,0-0.669-0.124-0.916-0.371c-0.248-0.248-0.372-0.554-0.372-0.917v-16.768
			c0-0.38,0.124-0.689,0.372-0.929c0.247-0.239,0.553-0.359,0.916-0.359c0.38,0,0.689,0.12,0.929,0.359s0.359,0.549,0.359,0.929
			v7.108h11.492v-7.108C315.048,383.704,315.172,383.394,315.42,383.155z"/>
		<path fill="var(--color-mir)" d="M335.741,383.13c0.223,0.224,0.334,0.508,0.334,0.854s-0.111,0.632-0.334,0.854
			c-0.223,0.224-0.508,0.335-0.854,0.335h-5.325v15.678c0,0.363-0.124,0.669-0.372,0.917c-0.247,0.247-0.553,0.371-0.916,0.371
			s-0.669-0.124-0.916-0.371c-0.248-0.248-0.372-0.554-0.372-0.917v-15.678h-5.35c-0.347,0-0.632-0.111-0.854-0.335
			c-0.223-0.223-0.335-0.508-0.335-0.854s0.112-0.631,0.335-0.854c0.223-0.223,0.508-0.334,0.854-0.334h13.251
			C335.233,382.796,335.519,382.907,335.741,383.13z"/>
		<path fill="var(--color-mir)" d="M349.611,383.043c0.917,0.331,1.846,0.876,2.787,1.635c0.197,0.149,0.33,0.302,0.396,0.459
			c0.066,0.157,0.1,0.343,0.1,0.557c0,0.331-0.12,0.604-0.359,0.817c-0.239,0.215-0.517,0.322-0.83,0.322s-0.603-0.107-0.866-0.322
			c-0.678-0.577-1.338-0.994-1.981-1.251c-0.645-0.256-1.479-0.384-2.502-0.384c-1.288,0-2.473,0.339-3.554,1.016
			c-1.082,0.678-1.94,1.598-2.576,2.762s-0.954,2.432-0.954,3.802c0,1.388,0.318,2.659,0.954,3.814
			c0.636,1.156,1.494,2.072,2.576,2.749c1.081,0.678,2.266,1.016,3.554,1.016c1.585,0,3.104-0.545,4.558-1.635
			c0.28-0.198,0.553-0.297,0.817-0.297c0.313,0,0.573,0.111,0.78,0.334c0.206,0.224,0.31,0.517,0.31,0.88
			c0,0.347-0.133,0.652-0.396,0.916c-1.783,1.437-3.807,2.155-6.068,2.155c-1.767,0-3.381-0.438-4.842-1.313
			c-1.462-0.875-2.613-2.071-3.455-3.591c-0.843-1.52-1.264-3.195-1.264-5.028c0-1.816,0.421-3.479,1.264-4.99
			c0.842-1.511,1.993-2.708,3.455-3.592c1.461-0.883,3.075-1.325,4.842-1.325C347.609,382.548,348.695,382.713,349.611,383.043z"/>
		<path fill="var(--color-mir)" d="M370.119,383.13c0.223,0.224,0.334,0.508,0.334,0.854s-0.111,0.632-0.334,0.854
			c-0.223,0.224-0.508,0.335-0.854,0.335h-5.325v15.678c0,0.363-0.124,0.669-0.372,0.917c-0.247,0.247-0.553,0.371-0.916,0.371
			s-0.669-0.124-0.916-0.371c-0.248-0.248-0.372-0.554-0.372-0.917v-15.678h-5.35c-0.347,0-0.632-0.111-0.854-0.335
			c-0.223-0.223-0.335-0.508-0.335-0.854s0.112-0.631,0.335-0.854c0.223-0.223,0.508-0.334,0.854-0.334h13.251
			C369.611,382.796,369.896,382.907,370.119,383.13z"/>
		<path fill="var(--color-mir)" d="M383.457,383.452c0.858,0.438,1.531,1.049,2.019,1.833c0.486,0.784,0.73,1.672,0.73,2.662
			c0,0.81-0.219,1.536-0.656,2.18c-0.438,0.645-1.036,1.164-1.796,1.561c1.123,0.265,2.007,0.793,2.65,1.585
			c0.644,0.793,0.966,1.8,0.966,3.021c0,1.123-0.269,2.131-0.805,3.022c-0.537,0.892-1.288,1.585-2.254,2.08
			s-2.061,0.743-3.282,0.743h-6.439c-0.363,0-0.669-0.124-0.916-0.371c-0.248-0.248-0.372-0.554-0.372-0.917v-16.768
			c0-0.38,0.124-0.689,0.372-0.929c0.247-0.239,0.553-0.359,0.916-0.359h5.92C381.615,382.796,382.599,383.015,383.457,383.452z
			 M382.851,390.028c0.585-0.479,0.879-1.173,0.879-2.081c0-0.907-0.294-1.598-0.879-2.067c-0.587-0.471-1.367-0.706-2.341-0.706
			h-4.632v5.572h4.632C381.483,390.746,382.264,390.507,382.851,390.028z M383.828,398.857c0.71-0.603,1.065-1.457,1.065-2.563
			c0-1.023-0.352-1.808-1.053-2.353c-0.702-0.545-1.639-0.817-2.812-0.817h-5.151v6.638h5.151
			C382.186,399.762,383.118,399.461,383.828,398.857z"/>
		<path fill="var(--color-mir)" d="M404.745,383.811c1.494,0.842,2.658,2.015,3.492,3.517c0.834,1.503,1.251,3.212,1.251,5.127
			c0,1.916-0.417,3.629-1.251,5.14s-1.993,2.688-3.479,3.529s-3.188,1.264-5.103,1.264c-1.916,0-3.62-0.422-5.114-1.264
			c-1.495-0.842-2.654-2.019-3.48-3.529c-0.825-1.511-1.238-3.224-1.238-5.14c0-1.915,0.413-3.624,1.238-5.127
			c0.826-1.502,1.985-2.675,3.48-3.517c1.494-0.843,3.198-1.264,5.114-1.264C401.554,382.548,403.251,382.969,404.745,383.811z
			 M395.854,385.867c-1.114,0.66-1.985,1.568-2.613,2.725c-0.628,1.155-0.941,2.443-0.941,3.863c0,1.421,0.313,2.708,0.941,3.864
			s1.503,2.068,2.626,2.736c1.122,0.669,2.386,1.004,3.789,1.004s2.667-0.335,3.79-1.004c1.122-0.668,1.997-1.58,2.625-2.736
			c0.627-1.156,0.941-2.443,0.941-3.864c0-1.42-0.314-2.708-0.941-3.863c-0.628-1.156-1.498-2.064-2.613-2.725
			c-1.114-0.66-2.382-0.991-3.802-0.991S396.968,385.207,395.854,385.867z"/>
	</g>
	<g>
		<g>
			<circle fill="#E5351E" cx="41.402" cy="119.942" r="40.955"/>
			<circle fill="#E5371E" cx="42.209" cy="119.16" r="40.955"/>
			<circle fill="#E5381E" cx="43.017" cy="118.378" r="40.955"/>
			<circle fill="#E63A1E" cx="43.824" cy="117.596" r="40.955"/>
			<circle fill="#E63C1F" cx="44.632" cy="116.814" r="40.955"/>
			<circle fill="#E63D1F" cx="45.439" cy="116.032" r="40.955"/>
			<circle fill="#E63F1F" cx="46.247" cy="115.25" r="40.955"/>
			<circle fill="#E6421F" cx="47.054" cy="114.468" r="40.955"/>
			<circle fill="#E7431F" cx="47.862" cy="113.686" r="40.955"/>
			<circle fill="#E7451F" cx="48.669" cy="112.903" r="40.955"/>
			<circle fill="#E7471F" cx="49.477" cy="112.121" r="40.955"/>
			<circle fill="#E74920" cx="50.284" cy="111.339" r="40.955"/>
			<circle fill="#E74A20" cx="51.092" cy="110.557" r="40.955"/>
			<circle fill="#E84C20" cx="51.899" cy="109.775" r="40.955"/>
			<circle fill="#E84E20" cx="52.707" cy="108.993" r="40.955"/>
			<circle fill="#E84F20" cx="53.514" cy="108.211" r="40.955"/>
			<circle fill="#E85120" cx="54.322" cy="107.429" r="40.955"/>
			<circle fill="#E85320" cx="55.129" cy="106.647" r="40.955"/>
			<circle fill="#E95521" cx="55.937" cy="105.865" r="40.955"/>
			<circle fill="#E95621" cx="56.744" cy="105.083" r="40.955"/>
			<circle fill="#E95821" cx="57.552" cy="104.301" r="40.955"/>
			<circle fill="#E95A21" cx="58.359" cy="103.519" r="40.955"/>
			<circle fill="#EA5B21" cx="59.166" cy="102.737" r="40.955"/>
			<circle fill="#EA5D21" cx="59.974" cy="101.955" r="40.955"/>
			<circle fill="#EA5F22" cx="60.781" cy="101.173" r="40.955"/>
			<circle fill="#EA6122" cx="61.589" cy="100.391" r="40.955"/>
			<circle fill="#EB6222" cx="62.396" cy="99.609" r="40.955"/>
			<circle fill="#EB6422" cx="63.204" cy="98.827" r="40.955"/>
			<circle fill="#EB6622" cx="64.011" cy="98.045" r="40.955"/>
			<circle fill="#EB6622" cx="64.819" cy="97.262" r="40.955"/>
			<circle fill="#EB6822" cx="65.626" cy="96.48" r="40.955"/>
			<circle fill="#EC6A23" cx="66.434" cy="95.698" r="40.955"/>
			<circle fill="#EC6C23" cx="67.241" cy="94.916" r="40.955"/>
			<circle fill="#EC6D23" cx="68.049" cy="94.134" r="40.955"/>
			<circle fill="#EC6F22" cx="68.856" cy="93.352" r="40.955"/>
			<circle fill="#ED7122" cx="69.664" cy="92.57" r="40.955"/>
			<circle fill="#ED7122" cx="70.471" cy="91.788" r="40.955"/>
			<circle fill="#ED7322" cx="71.279" cy="91.006" r="40.955"/>
			<circle fill="#ED7523" cx="72.086" cy="90.224" r="40.955"/>
			<circle fill="#ED7723" cx="72.894" cy="89.442" r="40.955"/>
			<circle fill="#EE7823" cx="73.701" cy="88.66" r="40.955"/>
			<circle fill="#EE7923" cx="74.509" cy="87.878" r="40.955"/>
			<circle fill="#EE7B23" cx="75.316" cy="87.096" r="40.955"/>
			<circle fill="#EE7C23" cx="76.124" cy="86.314" r="40.955"/>
			<circle fill="#EF7E23" cx="76.931" cy="85.532" r="40.955"/>
			<circle fill="#EF7F24" cx="77.739" cy="84.75" r="40.955"/>
			<circle fill="#EF8024" cx="78.546" cy="83.968" r="40.955"/>
			<circle fill="#EF8124" cx="79.354" cy="83.186" r="40.955"/>
			<circle fill="#F08324" cx="80.161" cy="82.403" r="40.955"/>
			<circle fill="#F08424" cx="80.969" cy="81.621" r="40.955"/>
			<circle fill="#F08524" cx="81.776" cy="80.839" r="40.955"/>
			<circle fill="#F08725" cx="82.584" cy="80.057" r="40.955"/>
			<circle fill="#F18825" cx="83.391" cy="79.275" r="40.955"/>
			<circle fill="#F18A25" cx="84.198" cy="78.493" r="40.955"/>
			<circle fill="#F18B25" cx="85.006" cy="77.711" r="40.955"/>
			<circle fill="#F18D25" cx="85.813" cy="76.929" r="40.955"/>
			<circle fill="#F28E25" cx="86.621" cy="76.147" r="40.955"/>
			<circle fill="#F28F25" cx="87.428" cy="75.365" r="40.955"/>
			<circle fill="#F29126" cx="88.236" cy="74.583" r="40.955"/>
			<circle fill="#F29326" cx="89.043" cy="73.801" r="40.955"/>
			<circle fill="#F39426" cx="89.851" cy="73.019" r="40.955"/>
			<circle fill="#F39525" cx="90.658" cy="72.237" r="40.955"/>
			<circle fill="#F39725" cx="91.466" cy="71.455" r="40.955"/>
			<circle fill="#F49825" cx="92.273" cy="70.673" r="40.955"/>
			<circle fill="#F49925" cx="93.081" cy="69.891" r="40.955"/>
			<circle fill="#F49B26" cx="93.888" cy="69.109" r="40.955"/>
			<circle fill="#F49C26" cx="94.696" cy="68.327" r="40.955"/>
			<circle fill="#F59E26" cx="95.503" cy="67.545" r="40.955"/>
			<circle fill="#F59F26" cx="96.311" cy="66.762" r="40.955"/>
			<circle fill="#F5A026" cx="97.118" cy="65.98" r="40.955"/>
			<circle fill="#F5A226" cx="97.926" cy="65.198" r="40.955"/>
			<circle fill="#F6A327" cx="98.733" cy="64.416" r="40.955"/>
			<circle fill="#F6A427" cx="99.541" cy="63.634" r="40.955"/>
			<circle fill="#F6A627" cx="100.348" cy="62.852" r="40.955"/>
			<circle fill="#F6A827" cx="101.156" cy="62.07" r="40.955"/>
			<circle fill="#F7A827" cx="101.963" cy="61.288" r="40.955"/>
			<circle fill="#F7AA27" cx="102.771" cy="60.506" r="40.955"/>
			<circle fill="#F7AB26" cx="103.578" cy="59.724" r="40.955"/>
			<circle fill="#F7AC28" cx="104.386" cy="58.942" r="40.955"/>
			<circle fill="#F8AE28" cx="105.193" cy="58.16" r="40.955"/>
			<circle fill="#F8AF28" cx="106.001" cy="57.378" r="40.955"/>
			<circle fill="#F8B127" cx="106.808" cy="56.596" r="40.955"/>
			<circle fill="#F8B227" cx="107.616" cy="55.814" r="40.955"/>
			<circle fill="#F9B327" cx="108.423" cy="55.032" r="40.955"/>
			<circle fill="#F9B527" cx="109.23" cy="54.25" r="40.955"/>
			<circle fill="#F9B528" cx="110.038" cy="53.468" r="40.955"/>
			<circle fill="#FAB728" cx="110.845" cy="52.686" r="40.955"/>
			<circle fill="#FAB828" cx="111.653" cy="51.903" r="40.955"/>
			<circle fill="#FAB928" cx="112.46" cy="51.121" r="40.955"/>
			<circle fill="#FABB28" cx="113.268" cy="50.339" r="40.955"/>
			<circle fill="#FBBC28" cx="114.075" cy="49.557" r="40.955"/>
			<circle fill="#FBBD28" cx="114.883" cy="48.775" r="40.955"/>
			<circle fill="#FBBE29" cx="115.69" cy="47.993" r="40.955"/>
			<circle fill="#FBC029" cx="116.498" cy="47.211" r="40.955"/>
			<circle fill="#FCC129" cx="117.305" cy="46.429" r="40.955"/>
			<circle fill="#FCC229" cx="118.113" cy="45.647" r="40.955"/>
			<circle fill="#FCC328" cx="118.92" cy="44.865" r="40.955"/>
			<circle fill="#FCC528" cx="119.728" cy="44.083" r="40.955"/>
			<circle fill="#FCC62A" cx="120.535" cy="43.301" r="40.955"/>
			<circle fill="#FDC72A" cx="121.343" cy="42.519" r="40.955"/>
			<circle fill="#FDC829" cx="122.15" cy="41.737" r="40.955"/>
			<circle fill="#FDCA29" cx="122.958" cy="40.955" r="40.955"/>
			<circle fill="#FDC92B" cx="123.765" cy="41.743" r="40.955"/>
			<circle fill="#FBCA2E" cx="124.573" cy="42.532" r="40.955"/>
			<circle fill="#FBC930" cx="125.38" cy="43.32" r="40.955"/>
			<circle fill="#F9CA32" cx="126.188" cy="44.108" r="40.955"/>
			<circle fill="#F9CA34" cx="126.995" cy="44.897" r="40.955"/>
			<circle fill="#F7CA37" cx="127.803" cy="45.685" r="40.955"/>
			<circle fill="#F7CA38" cx="128.61" cy="46.474" r="40.955"/>
			<circle fill="#F5CA3A" cx="129.418" cy="47.262" r="40.955"/>
			<circle fill="#F4CA3C" cx="130.225" cy="48.05" r="40.955"/>
			<circle fill="#F3CA3E" cx="131.033" cy="48.839" r="40.955"/>
			<circle fill="#F2CA40" cx="131.84" cy="49.627" r="40.955"/>
			<circle fill="#F1CA41" cx="132.647" cy="50.416" r="40.955"/>
			<circle fill="#EFCA44" cx="133.455" cy="51.204" r="40.955"/>
			<circle fill="#EFCA45" cx="134.262" cy="51.993" r="40.955"/>
			<circle fill="#EDCA47" cx="135.07" cy="52.781" r="40.955"/>
			<circle fill="#ECCA48" cx="135.877" cy="53.569" r="40.955"/>
			<circle fill="#EBCA4B" cx="136.685" cy="54.358" r="40.955"/>
			<circle fill="#EACA4C" cx="137.492" cy="55.146" r="40.955"/>
			<circle fill="#E9CA4D" cx="138.3" cy="55.935" r="40.955"/>
			<circle fill="#E8CA50" cx="139.107" cy="56.723" r="40.955"/>
			<circle fill="#E7CA51" cx="139.915" cy="57.511" r="40.955"/>
			<circle fill="#E5CA53" cx="140.722" cy="58.3" r="40.955"/>
			<circle fill="#E5CA54" cx="141.53" cy="59.088" r="40.955"/>
			<circle fill="#E3CA56" cx="142.337" cy="59.877" r="40.955"/>
			<circle fill="#E2CA57" cx="143.145" cy="60.665" r="40.955"/>
			<circle fill="#E1CA59" cx="143.952" cy="61.453" r="40.955"/>
			<circle fill="#DFCA5B" cx="144.76" cy="62.242" r="40.955"/>
			<circle fill="#DECA5C" cx="145.567" cy="63.03" r="40.955"/>
			<circle fill="#DDCA5D" cx="146.375" cy="63.819" r="40.955"/>
			<circle fill="#DCC95E" cx="147.182" cy="64.607" r="40.955"/>
			<circle fill="#DACA61" cx="147.99" cy="65.395" r="40.955"/>
			<circle fill="#D9C962" cx="148.797" cy="66.184" r="40.955"/>
			<circle fill="#D8C963" cx="149.605" cy="66.972" r="40.955"/>
			<circle fill="#D7CA64" cx="150.412" cy="67.761" r="40.955"/>
			<circle fill="#D6C966" cx="151.22" cy="68.549" r="40.955"/>
			<circle fill="#D4C967" cx="152.027" cy="69.338" r="40.955"/>
			<circle fill="#D3C968" cx="152.835" cy="70.126" r="40.955"/>
			<circle fill="#D2C96B" cx="153.642" cy="70.914" r="40.955"/>
			<circle fill="#D0C96C" cx="154.45" cy="71.703" r="40.955"/>
			<circle fill="#CFC96D" cx="155.257" cy="72.491" r="40.955"/>
			<circle fill="#CEC96E" cx="156.065" cy="73.28" r="40.955"/>
			<circle fill="#CDC970" cx="156.872" cy="74.068" r="40.955"/>
			<circle fill="#CBC871" cx="157.679" cy="74.856" r="40.955"/>
			<circle fill="#CAC972" cx="158.487" cy="75.645" r="40.955"/>
			<circle fill="#C9C974" cx="159.294" cy="76.433" r="40.955"/>
			<circle fill="#C8C975" cx="160.102" cy="77.222" r="40.955"/>
			<circle fill="#C6C876" cx="160.909" cy="78.01" r="40.955"/>
			<circle fill="#C4C877" cx="161.717" cy="78.798" r="40.955"/>
			<circle fill="#C3C879" cx="162.524" cy="79.587" r="40.955"/>
			<circle fill="#C1C87A" cx="163.332" cy="80.375" r="40.955"/>
			<circle fill="#C0C87B" cx="164.139" cy="81.164" r="40.955"/>
			<circle fill="#BFC77C" cx="164.947" cy="81.952" r="40.955"/>
			<circle fill="#BEC87E" cx="165.754" cy="82.74" r="40.955"/>
			<circle fill="#BCC87F" cx="166.562" cy="83.529" r="40.955"/>
			<circle fill="#BAC780" cx="167.369" cy="84.317" r="40.955"/>
			<circle fill="#B9C781" cx="168.177" cy="85.106" r="40.955"/>
			<circle fill="#B7C782" cx="168.984" cy="85.894" r="40.955"/>
			<circle fill="#B6C783" cx="169.792" cy="86.683" r="40.955"/>
			<circle fill="#B4C684" cx="170.599" cy="87.471" r="40.955"/>
			<circle fill="#B3C786" cx="171.407" cy="88.259" r="40.955"/>
			<circle fill="#B1C687" cx="172.214" cy="89.048" r="40.955"/>
			<circle fill="#B0C688" cx="173.022" cy="89.836" r="40.955"/>
			<circle fill="#AEC689" cx="173.829" cy="90.625" r="40.955"/>
			<circle fill="#ACC68A" cx="174.637" cy="91.413" r="40.955"/>
			<circle fill="#ABC68B" cx="175.444" cy="92.201" r="40.955"/>
			<circle fill="#A9C58C" cx="176.252" cy="92.99" r="40.955"/>
			<circle fill="#A8C68E" cx="177.059" cy="93.778" r="40.955"/>
			<circle fill="#A6C58F" cx="177.867" cy="94.567" r="40.955"/>
			<circle fill="#A5C590" cx="178.674" cy="95.355" r="40.955"/>
			<circle fill="#A2C591" cx="179.482" cy="96.143" r="40.955"/>
			<circle fill="#A0C592" cx="180.289" cy="96.932" r="40.955"/>
			<circle fill="#9FC493" cx="181.097" cy="97.72" r="40.955"/>
			<circle fill="#9DC494" cx="181.904" cy="98.509" r="40.955"/>
			<circle fill="#9CC596" cx="182.711" cy="99.297" r="40.955"/>
			<circle fill="#9AC497" cx="183.519" cy="100.085" r="40.955"/>
			<circle fill="#98C498" cx="184.326" cy="100.874" r="40.955"/>
			<circle fill="#96C498" cx="185.134" cy="101.662" r="40.955"/>
			<circle fill="#94C39A" cx="185.941" cy="102.451" r="40.955"/>
			<circle fill="#93C39B" cx="186.749" cy="103.239" r="40.955"/>
			<circle fill="#90C39C" cx="187.556" cy="104.028" r="40.955"/>
			<circle fill="#8FC39D" cx="188.364" cy="104.816" r="40.955"/>
			<circle fill="#8CC39E" cx="189.171" cy="105.604" r="40.955"/>
			<circle fill="#8BC39F" cx="189.979" cy="106.393" r="40.955"/>
			<circle fill="#89C2A0" cx="190.786" cy="107.181" r="40.955"/>
			<circle fill="#87C2A1" cx="191.594" cy="107.97" r="40.955"/>
			<circle fill="#85C2A2" cx="192.401" cy="108.758" r="40.955"/>
			<circle fill="#82C2A3" cx="193.209" cy="109.546" r="40.955"/>
			<circle fill="#81C1A4" cx="194.016" cy="110.335" r="40.955"/>
			<circle fill="#7FC1A5" cx="194.824" cy="111.123" r="40.955"/>
			<circle fill="#7DC1A6" cx="195.631" cy="111.912" r="40.955"/>
			<circle fill="#7BC0A7" cx="196.439" cy="112.7" r="40.955"/>
			<circle fill="#79C1A9" cx="197.246" cy="113.488" r="40.955"/>
			<circle fill="#76C0A9" cx="198.054" cy="114.277" r="40.955"/>
			<circle fill="#73C0AA" cx="198.861" cy="115.065" r="40.955"/>
			<circle fill="#71BFAB" cx="199.669" cy="115.854" r="40.955"/>
			<circle fill="#6EBFAC" cx="200.476" cy="116.642" r="40.955"/>
			<circle fill="#6CBFAD" cx="201.284" cy="117.43" r="40.955"/>
			<circle fill="#69BEAE" cx="202.091" cy="118.219" r="40.955"/>
			<circle fill="#67BEAF" cx="202.899" cy="119.007" r="40.955"/>
			<circle fill="#64BEB0" cx="203.706" cy="119.796" r="40.955"/>
			<circle fill="#62BDB1" cx="204.514" cy="120.584" r="40.955"/>
			<circle fill="#60BDB0" cx="205.321" cy="119.796" r="40.955"/>
			<circle fill="#61BDAF" cx="206.129" cy="119.007" r="40.955"/>
			<circle fill="#61BDAD" cx="206.936" cy="118.219" r="40.955"/>
			<circle fill="#61BDAC" cx="207.743" cy="117.43" r="40.955"/>
			<circle fill="#61BDAB" cx="208.551" cy="116.642" r="40.955"/>
			<circle fill="#61BDAA" cx="209.358" cy="115.854" r="40.955"/>
			<circle fill="#62BCA9" cx="210.166" cy="115.065" r="40.955"/>
			<circle fill="#62BCA7" cx="210.973" cy="114.277" r="40.955"/>
			<circle fill="#62BCA6" cx="211.781" cy="113.488" r="40.955"/>
			<circle fill="#62BCA5" cx="212.588" cy="112.7" r="40.955"/>
			<circle fill="#62BCA4" cx="213.396" cy="111.912" r="40.955"/>
			<circle fill="#63BCA3" cx="214.203" cy="111.123" r="40.955"/>
			<circle fill="#63BCA1" cx="215.011" cy="110.335" r="40.955"/>
			<circle fill="#63BCA0" cx="215.818" cy="109.546" r="40.955"/>
			<circle fill="#63BC9F" cx="216.626" cy="108.758" r="40.955"/>
			<circle fill="#64BC9E" cx="217.433" cy="107.97" r="40.955"/>
			<circle fill="#64BB9D" cx="218.241" cy="107.181" r="40.955"/>
			<circle fill="#64BB9B" cx="219.048" cy="106.393" r="40.955"/>
			<circle fill="#64BB9B" cx="219.856" cy="105.604" r="40.955"/>
			<circle fill="#63BB99" cx="220.663" cy="104.816" r="40.955"/>
			<circle fill="#63BB98" cx="221.471" cy="104.028" r="40.955"/>
			<circle fill="#63BB97" cx="222.278" cy="103.239" r="40.955"/>
			<circle fill="#64BA95" cx="223.086" cy="102.451" r="40.955"/>
			<circle fill="#64BA94" cx="223.893" cy="101.662" r="40.955"/>
			<circle fill="#64BA93" cx="224.701" cy="100.874" r="40.955"/>
			<circle fill="#64BA92" cx="225.508" cy="100.085" r="40.955"/>
			<circle fill="#64BA90" cx="226.316" cy="99.297" r="40.955"/>
			<circle fill="#65BA8F" cx="227.123" cy="98.509" r="40.955"/>
			<circle fill="#65BA8E" cx="227.931" cy="97.72" r="40.955"/>
			<circle fill="#65BA8C" cx="228.738" cy="96.932" r="40.955"/>
			<circle fill="#65BA8C" cx="229.546" cy="96.143" r="40.955"/>
			<circle fill="#65BA8A" cx="230.353" cy="95.355" r="40.955"/>
			<circle fill="#66B988" cx="231.161" cy="94.567" r="40.955"/>
			<circle fill="#66B988" cx="231.968" cy="93.778" r="40.955"/>
			<circle fill="#66B986" cx="232.775" cy="92.99" r="40.955"/>
			<circle fill="#66B985" cx="233.583" cy="92.201" r="40.955"/>
			<circle fill="#66B984" cx="234.39" cy="91.413" r="40.955"/>
			<circle fill="#67B982" cx="235.198" cy="90.625" r="40.955"/>
			<circle fill="#65B881" cx="236.005" cy="89.836" r="40.955"/>
			<circle fill="#65B880" cx="236.813" cy="89.048" r="40.955"/>
			<circle fill="#66B880" cx="237.62" cy="88.259" r="40.955"/>
			<circle fill="#66B87E" cx="238.428" cy="87.471" r="40.955"/>
			<circle fill="#66B87C" cx="239.235" cy="86.683" r="40.955"/>
			<circle fill="#66B87C" cx="240.043" cy="85.894" r="40.955"/>
			<circle fill="#66B87A" cx="240.85" cy="85.106" r="40.955"/>
			<circle fill="#66B879" cx="241.658" cy="84.317" r="40.955"/>
			<circle fill="#67B877" cx="242.465" cy="83.529" r="40.955"/>
			<circle fill="#67B876" cx="243.273" cy="82.74" r="40.955"/>
			<circle fill="#67B875" cx="244.08" cy="81.952" r="40.955"/>
			<circle fill="#67B773" cx="244.888" cy="81.164" r="40.955"/>
			<circle fill="#67B772" cx="245.695" cy="80.375" r="40.955"/>
			<circle fill="#68B771" cx="246.503" cy="79.587" r="40.955"/>
			<circle fill="#68B76F" cx="247.31" cy="78.798" r="40.955"/>
			<circle fill="#68B76E" cx="248.118" cy="78.01" r="40.955"/>
			<circle fill="#68B76D" cx="248.925" cy="77.222" r="40.955"/>
			<circle fill="#68B76C" cx="249.733" cy="76.433" r="40.955"/>
			<circle fill="#68B76A" cx="250.54" cy="75.645" r="40.955"/>
			<circle fill="#67B668" cx="251.348" cy="74.856" r="40.955"/>
			<circle fill="#67B668" cx="252.155" cy="74.068" r="40.955"/>
			<circle fill="#67B666" cx="252.963" cy="73.28" r="40.955"/>
			<circle fill="#67B665" cx="253.77" cy="72.491" r="40.955"/>
			<circle fill="#68B663" cx="254.578" cy="71.703" r="40.955"/>
			<circle fill="#68B662" cx="255.385" cy="70.914" r="40.955"/>
			<circle fill="#68B661" cx="256.193" cy="70.126" r="40.955"/>
			<circle fill="#68B65F" cx="257" cy="69.338" r="40.955"/>
			<circle fill="#68B65E" cx="257.807" cy="68.549" r="40.955"/>
			<circle fill="#68B65C" cx="258.615" cy="67.761" r="40.955"/>
			<circle fill="#69B65B" cx="259.422" cy="66.972" r="40.955"/>
			<circle fill="#69B55A" cx="260.23" cy="66.184" r="40.955"/>
			<circle fill="#69B558" cx="261.037" cy="65.395" r="40.955"/>
			<circle fill="#69B557" cx="261.845" cy="64.607" r="40.955"/>
			<circle fill="#69B555" cx="262.652" cy="63.819" r="40.955"/>
			<circle fill="#69B554" cx="263.46" cy="63.03" r="40.955"/>
			<circle fill="#69B553" cx="264.267" cy="62.242" r="40.955"/>
			<circle fill="#6AB551" cx="265.075" cy="61.453" r="40.955"/>
			<circle fill="#6AB550" cx="265.882" cy="60.665" r="40.955"/>
			<circle fill="#68B54F" cx="266.69" cy="59.877" r="40.955"/>
			<circle fill="#68B54D" cx="267.497" cy="59.088" r="40.955"/>
			<circle fill="#69B44C" cx="268.305" cy="58.3" r="40.955"/>
			<circle fill="#69B44B" cx="269.112" cy="57.511" r="40.955"/>
			<circle fill="#69B44A" cx="269.92" cy="56.723" r="40.955"/>
			<circle fill="#69B448" cx="270.727" cy="55.935" r="40.955"/>
			<circle fill="#69B446" cx="271.535" cy="55.146" r="40.955"/>
			<circle fill="#69B446" cx="272.342" cy="54.358" r="40.955"/>
			<circle fill="#69B444" cx="273.15" cy="53.569" r="40.955"/>
			<circle fill="#69B443" cx="273.957" cy="52.781" r="40.955"/>
			<circle fill="#69B441" cx="274.765" cy="51.993" r="40.955"/>
			<circle fill="#69B440" cx="275.572" cy="51.204" r="40.955"/>
			<circle fill="#69B43F" cx="276.38" cy="50.416" r="40.955"/>
			<circle fill="#6AB43D" cx="277.187" cy="49.627" r="40.955"/>
			<circle fill="#6AB43C" cx="277.995" cy="48.839" r="40.955"/>
			<circle fill="#6AB43B" cx="278.802" cy="48.05" r="40.955"/>
			<circle fill="#6AB439" cx="279.61" cy="47.262" r="40.955"/>
			<circle fill="#6AB438" cx="280.417" cy="46.474" r="40.955"/>
			<circle fill="#6AB436" cx="281.224" cy="45.685" r="40.955"/>
			<circle fill="#6AB435" cx="282.032" cy="44.897" r="40.955"/>
			<circle fill="#69B334" cx="282.839" cy="44.108" r="40.955"/>
			<circle fill="#69B332" cx="283.647" cy="43.32" r="40.955"/>
			<circle fill="#69B331" cx="284.454" cy="42.532" r="40.955"/>
			<circle fill="#69B32F" cx="285.262" cy="41.743" r="40.955"/>
			<circle fill="#69B32D" cx="286.069" cy="40.955" r="40.955"/>
			<circle fill="#6AB32D" cx="286.858" cy="41.737" r="40.955"/>
			<circle fill="#6CB42D" cx="287.646" cy="42.519" r="40.955"/>
			<circle fill="#6CB42D" cx="288.435" cy="43.301" r="40.955"/>
			<circle fill="#6DB42D" cx="289.223" cy="44.083" r="40.955"/>
			<circle fill="#6DB42D" cx="290.011" cy="44.865" r="40.955"/>
			<circle fill="#6EB42D" cx="290.8" cy="45.647" r="40.955"/>
			<circle fill="#70B52D" cx="291.588" cy="46.429" r="40.955"/>
			<circle fill="#70B52D" cx="292.377" cy="47.211" r="40.955"/>
			<circle fill="#71B52D" cx="293.165" cy="47.993" r="40.955"/>
			<circle fill="#72B52C" cx="293.953" cy="48.775" r="40.955"/>
			<circle fill="#72B62E" cx="294.742" cy="49.557" r="40.955"/>
			<circle fill="#74B62D" cx="295.53" cy="50.339" r="40.955"/>
			<circle fill="#75B62D" cx="296.319" cy="51.121" r="40.955"/>
			<circle fill="#75B62D" cx="297.107" cy="51.903" r="40.955"/>
			<circle fill="#76B72D" cx="297.896" cy="52.686" r="40.955"/>
			<circle fill="#78B72C" cx="298.684" cy="53.468" r="40.955"/>
			<circle fill="#78B72D" cx="299.472" cy="54.25" r="40.955"/>
			<circle fill="#79B72D" cx="300.261" cy="55.032" r="40.955"/>
			<circle fill="#7AB82D" cx="301.049" cy="55.814" r="40.955"/>
			<circle fill="#7AB82D" cx="301.838" cy="56.596" r="40.955"/>
			<circle fill="#7BB82C" cx="302.626" cy="57.378" r="40.955"/>
			<circle fill="#7DB92D" cx="303.414" cy="58.16" r="40.955"/>
			<circle fill="#7DB92D" cx="304.203" cy="58.942" r="40.955"/>
			<circle fill="#7EB92D" cx="304.991" cy="59.724" r="40.955"/>
			<circle fill="#7EB92D" cx="305.78" cy="60.506" r="40.955"/>
			<circle fill="#7FB92C" cx="306.568" cy="61.288" r="40.955"/>
			<circle fill="#80BA2D" cx="307.356" cy="62.07" r="40.955"/>
			<circle fill="#80BA2D" cx="308.145" cy="62.852" r="40.955"/>
			<circle fill="#81BA2D" cx="308.933" cy="63.634" r="40.955"/>
			<circle fill="#82BB2D" cx="309.722" cy="64.416" r="40.955"/>
			<circle fill="#82BB2D" cx="310.51" cy="65.198" r="40.955"/>
			<circle fill="#83BB2C" cx="311.298" cy="65.98" r="40.955"/>
			<circle fill="#84BB2D" cx="312.087" cy="66.762" r="40.955"/>
			<circle fill="#84BB2D" cx="312.875" cy="67.545" r="40.955"/>
			<circle fill="#86BC2D" cx="313.664" cy="68.327" r="40.955"/>
			<circle fill="#87BC2C" cx="314.452" cy="69.109" r="40.955"/>
			<circle fill="#87BC2C" cx="315.241" cy="69.891" r="40.955"/>
			<circle fill="#88BD2D" cx="316.029" cy="70.673" r="40.955"/>
			<circle fill="#89BD2D" cx="316.817" cy="71.455" r="40.955"/>
			<circle fill="#89BD2D" cx="317.606" cy="72.237" r="40.955"/>
			<circle fill="#8ABD2C" cx="318.394" cy="73.019" r="40.955"/>
			<circle fill="#8ABD2C" cx="319.183" cy="73.801" r="40.955"/>
			<circle fill="#8CBE2D" cx="319.971" cy="74.583" r="40.955"/>
			<circle fill="#8DBE2D" cx="320.759" cy="75.365" r="40.955"/>
			<circle fill="#8DBE2D" cx="321.548" cy="76.147" r="40.955"/>
			<circle fill="#8EBE2C" cx="322.336" cy="76.929" r="40.955"/>
			<circle fill="#8FBF2C" cx="323.125" cy="77.711" r="40.955"/>
			<circle fill="#8FBF2C" cx="323.913" cy="78.493" r="40.955"/>
			<circle fill="#90BF2D" cx="324.701" cy="79.275" r="40.955"/>
			<circle fill="#91BF2D" cx="325.49" cy="80.057" r="40.955"/>
			<circle fill="#91BF2D" cx="326.278" cy="80.839" r="40.955"/>
			<circle fill="#92C02C" cx="327.067" cy="81.621" r="40.955"/>
			<circle fill="#93C02C" cx="327.855" cy="82.403" r="40.955"/>
			<circle fill="#93C02D" cx="328.643" cy="83.186" r="40.955"/>
			<circle fill="#94C12D" cx="329.432" cy="83.968" r="40.955"/>
			<circle fill="#96C12C" cx="330.22" cy="84.75" r="40.955"/>
			<circle fill="#96C12C" cx="331.009" cy="85.532" r="40.955"/>
			<circle fill="#97C12C" cx="331.797" cy="86.314" r="40.955"/>
			<circle fill="#98C22D" cx="332.586" cy="87.096" r="40.955"/>
			<circle fill="#98C22D" cx="333.374" cy="87.878" r="40.955"/>
			<circle fill="#99C22D" cx="334.162" cy="88.66" r="40.955"/>
			<circle fill="#99C22D" cx="334.951" cy="89.442" r="40.955"/>
			<circle fill="#9AC22C" cx="335.739" cy="90.224" r="40.955"/>
			<circle fill="#9BC32C" cx="336.528" cy="91.006" r="40.955"/>
			<circle fill="#9BC32D" cx="337.316" cy="91.788" r="40.955"/>
			<circle fill="#9CC32D" cx="338.104" cy="92.57" r="40.955"/>
			<circle fill="#9DC42C" cx="338.893" cy="93.352" r="40.955"/>
			<circle fill="#9DC42C" cx="339.681" cy="94.134" r="40.955"/>
			<circle fill="#9EC42C" cx="340.47" cy="94.916" r="40.955"/>
			<circle fill="#9FC42D" cx="341.258" cy="95.698" r="40.955"/>
			<circle fill="#9FC42D" cx="342.046" cy="96.48" r="40.955"/>
			<circle fill="#A0C52D" cx="342.835" cy="97.262" r="40.955"/>
			<circle fill="#A1C52C" cx="343.623" cy="98.045" r="40.955"/>
			<circle fill="#A1C52C" cx="344.412" cy="98.827" r="40.955"/>
			<circle fill="#A2C52D" cx="345.2" cy="99.609" r="40.955"/>
			<circle fill="#A3C62D" cx="345.988" cy="100.391" r="40.955"/>
			<circle fill="#A3C62D" cx="346.777" cy="101.173" r="40.955"/>
			<circle fill="#A4C62C" cx="347.565" cy="101.955" r="40.955"/>
			<circle fill="#A4C62C" cx="348.354" cy="102.737" r="40.955"/>
			<circle fill="#A5C72C" cx="349.142" cy="103.519" r="40.955"/>
			<circle fill="#A6C72D" cx="349.931" cy="104.301" r="40.955"/>
			<circle fill="#A6C72D" cx="350.719" cy="105.083" r="40.955"/>
			<circle fill="#A7C72D" cx="351.507" cy="105.865" r="40.955"/>
			<circle fill="#A8C82C" cx="352.296" cy="106.647" r="40.955"/>
			<circle fill="#A8C82C" cx="353.084" cy="107.429" r="40.955"/>
			<circle fill="#A9C82D" cx="353.873" cy="108.211" r="40.955"/>
			<circle fill="#AAC82D" cx="354.661" cy="108.993" r="40.955"/>
			<circle fill="#AAC82D" cx="355.449" cy="109.775" r="40.955"/>
			<circle fill="#ABC92D" cx="356.238" cy="110.557" r="40.955"/>
			<circle fill="#ACC92C" cx="357.026" cy="111.339" r="40.955"/>
			<circle fill="#ACC92C" cx="357.815" cy="112.121" r="40.955"/>
			<circle fill="#ADCA2D" cx="358.603" cy="112.903" r="40.955"/>
			<circle fill="#AECA2D" cx="359.391" cy="113.686" r="40.955"/>
			<circle fill="#AECA2D" cx="360.18" cy="114.468" r="40.955"/>
			<circle fill="#AFCA2D" cx="360.968" cy="115.25" r="40.955"/>
			<circle fill="#B0CB2C" cx="361.757" cy="116.032" r="40.955"/>
			<circle fill="#B0CB2D" cx="362.545" cy="116.814" r="40.955"/>
			<circle fill="#B1CB2D" cx="363.333" cy="117.596" r="40.955"/>
			<circle fill="#B1CB2D" cx="364.122" cy="118.378" r="40.955"/>
			<circle fill="#B2CB2D" cx="364.91" cy="119.16" r="40.955"/>
			<circle fill="#B3CC2C" cx="365.699" cy="119.942" r="40.955"/>
		</g>
		<g>
			<path fill="#844A96" d="M384.121,89.054c1.495,0.664,3.014,1.281,4.483,1.999c11.891,5.819,18.486,15.624,20.522,28.418
				c2.189,13.755-1.97,25.639-11.867,35.465c-7.243,7.191-14.496,14.373-21.785,21.519c-3.749,3.676-9.379,3.876-13.12,0.262
				c-7.31-7.061-14.508-14.241-21.679-21.443c-2.934-2.947-5.185-6.417-6.982-10.174c-0.196-0.411-0.474-0.783-0.715-1.173
				c-0.491-0.66-0.709-1.458-1.108-2.166c-1.845-4.313-2.439-8.862-2.556-13.503c-0.02-1.192-0.066-2.384,0.035-3.573
				c0.331-2.244,0.483-4.514,1.028-6.728c0.413-1.679,0.89-3.336,1.462-4.966c0.833-2.428,2.043-4.677,3.335-6.884
				c0.297-0.508,0.582-1.02,0.834-1.551c3.071-4.615,6.795-8.535,11.596-11.426c4.67-2.812,9.572-4.925,14.951-5.933
				c6.896-1.292,13.667-0.8,20.362,1.193C383.371,88.524,383.774,88.734,384.121,89.054z"/>
		</g>
		<g>
			<path fill="#FFFFFF" d="M369.81,108.76c8.978,0,16.112,7.07,16.145,16.001c0.033,8.894-7.146,16.004-16.142,15.988
				c-8.966-0.016-16.253-7.172-16.257-15.964C353.552,115.819,360.713,108.76,369.81,108.76z"/>
		</g>
	</g>
</g>
</symbol>
</svg>
