<?xml version="1.0" encoding="utf-8"?>
<!-- Generator: Adobe Illustrator 22.1.0, SVG Export Plug-In . SVG Version: 6.00 Build 0)  -->
<svg version="1.1" id="OBJECTS" xmlns="http://www.w3.org/2000/svg" xmlns:xlink="http://www.w3.org/1999/xlink" x="0px" y="0px"
	 width="199.9px" height="189.7px" viewBox="0 0 199.9 189.7" style="enable-background:new 0 0 199.9 189.7;" xml:space="preserve"
	>
<style type="text/css">
	.st0{fill:#CD3B37;}
</style>
<path class="st0" d="M61.6,103.2c9,14,7.5,33.4-1.8,47.2c-4.2,6.3-10,11.9-11.8,19.2c-1.6,6.6,0.4,13.6,2.3,20.1
	c-7.6-6.3-13.8-14.5-17-23.8c-3.2-9.4-3.2-19.9,0.8-29c2.1-4.9,5.3-9.2,8.5-13.4c3-3.9,6.2-7.7,9.4-11.5
	c-4.5,6.5-12.1,10.1-19.5,12.9c-7.4,2.8-15.2,5.2-21.3,10.2c-5.7,4.8-9.5,11.8-10.3,19.2c-2.7-10.1,0.7-20.7,4.1-30.6
	c1.4-4.1,2.9-8.3,5.3-11.9c2.2-3.1,5-5.7,7.9-8.2c3.3-2.8,6.9-5.5,11.1-6.5c3.4-0.7,7-0.2,10.4,0.4c7.4,1.3,14.6,3.1,21.8,5.2"/>
<path class="st0" d="M163.4,4.3c0,0-20.8-11.5-40.3,3c-19.5,14.5-25.7,52.3-30.6,72.1c-5,19.8-30.7,22.2-35,22.9
	c-4.3,0.7-4.8,4.2,3.8,4.1c8.6-0.1,28.8,4.4,50.6-14.9c21.8-19.2,13.1-29.7,32.1-44.9c15.1-12.1,46.6-22.7,56-42.9L163.4,4.3z"/>
</svg>
