<svg xmlns="http://www.w3.org/2000/svg" width="1920" height="625" viewBox="0 0 1920 625">
  <g>
    <g>
      <path fill="#fff" d="M-196.757 277.918c43.984 18.12 152.131 46.872 211.99 82.742C45.293 378.673 124.528 387.36 209 426c43.393 19.85 77.329 60.03 116 84 35.957 22.287 77.478 28.894 96.818 34.755C448.26 552.768 492.57 547.855 553 563c52.341 13.117 83.109-.668 142 45 63.261 49.057 222.876-27.566 316-28 61.514-.287 166.232 41.565 204 42 76.824.885 107.413-24.569 167-42 90.322-26.422 148.213-65.887 212.09-86.436 45.488-14.634 67.805-79.261 86.497-91.007 18.691-11.747 46.362-7.603 68.5-37.892 22.139-30.29 66.601-40.156 86.922-56.262 20.32-16.105 50.991-52.488 80.477-61.036 8.988-37.93 31.14-170.468 31.14-170.468L-293.745-11.127l90.84 287.587"/>
    </g>
  </g>
</svg>